ISO-10303-21;
HEADER;
/* Generated by software containing ST-Developer
 * from STEP Tools, Inc. (www.steptools.com) 
 */

FILE_DESCRIPTION(
/* description */ (''),
/* implementation_level */ '2;1');

FILE_NAME(
/* name */ 'Massive_Arcade_Button_with_LED_-_100mm_Red.step',
/* time_stamp */ '2026-04-13T09:48:44+03:00',
/* author */ (''),
/* organization */ (''),
/* preprocessor_version */ 'ST-DEVELOPER v20.1',
/* originating_system */ 'Autodesk Translation Framework v14.24.0.0',
/* authorisation */ '');

FILE_SCHEMA (('AUTOMOTIVE_DESIGN { 1 0 10303 214 3 1 1 }'));
ENDSEC;

DATA;
#10=MECHANICAL_DESIGN_GEOMETRIC_PRESENTATION_REPRESENTATION('',(#30,#31,
#32,#33,#34),#1295);
#11=ITEM_DEFINED_TRANSFORMATION($,$,#755,#831);
#12=ITEM_DEFINED_TRANSFORMATION($,$,#818,#832);
#13=(
REPRESENTATION_RELATIONSHIP($,$,#1312,#1311)
REPRESENTATION_RELATIONSHIP_WITH_TRANSFORMATION(#11)
SHAPE_REPRESENTATION_RELATIONSHIP()
);
#14=(
REPRESENTATION_RELATIONSHIP($,$,#1313,#1311)
REPRESENTATION_RELATIONSHIP_WITH_TRANSFORMATION(#12)
SHAPE_REPRESENTATION_RELATIONSHIP()
);
#15=CONTEXT_DEPENDENT_SHAPE_REPRESENTATION(#13,#1309);
#16=CONTEXT_DEPENDENT_SHAPE_REPRESENTATION(#14,#1310);
#17=NEXT_ASSEMBLY_USAGE_OCCURRENCE('Big Ass Button:1',
'Big Ass Button:1','Big Ass Button:1',#1315,#1316,'Big Ass Button:1');
#18=NEXT_ASSEMBLY_USAGE_OCCURRENCE('Big Ass Bezel:1','Big Ass Bezel:1',
'Big Ass Bezel:1',#1315,#1317,'Big Ass Bezel:1');
#19=SHAPE_REPRESENTATION_RELATIONSHIP('SRR','None',#1312,#21);
#20=SHAPE_REPRESENTATION_RELATIONSHIP('SRR','None',#1313,#22);
#21=ADVANCED_BREP_SHAPE_REPRESENTATION('',(#23),#1293);
#22=ADVANCED_BREP_SHAPE_REPRESENTATION('',(#24),#1294);
#23=MANIFOLD_SOLID_BREP('Big Ass button',#729);
#24=MANIFOLD_SOLID_BREP('Body1',#730);
#25=CONICAL_SURFACE('',#783,1.69748277496846,0.833505429944882);
#26=CONICAL_SURFACE('',#786,1.8414776841472,0.790555671794224);
#27=CONICAL_SURFACE('',#816,0.544003325205816,0.833505429944875);
#28=(
BOUNDED_SURFACE()
B_SPLINE_SURFACE(2,2,((#1087,#1088,#1089,#1090,#1091,#1092,#1093,#1094,
#1095),(#1096,#1097,#1098,#1099,#1100,#1101,#1102,#1103,#1104),(#1105,#1106,
#1107,#1108,#1109,#1110,#1111,#1112,#1113)),.UNSPECIFIED.,.F.,.T.,.F.)
B_SPLINE_SURFACE_WITH_KNOTS((3,3),(3,2,2,2,3),(-1.57316233512613,-0.74701961870475),
(-3.14159265358979,-1.5707963267949,0.,1.5707963267949,3.14159265358979),
 .UNSPECIFIED.)
GEOMETRIC_REPRESENTATION_ITEM()
RATIONAL_B_SPLINE_SURFACE(((1.,0.707106781186548,1.,0.707106781186548,1.,
0.707106781186548,1.,0.707106781186548,1.),(0.915892227001458,0.64763360454878,
0.915892227001458,0.64763360454878,0.915892227001458,0.64763360454878,0.915892227001458,
0.64763360454878,0.915892227001458),(1.,0.707106781186548,1.,0.707106781186548,
1.,0.707106781186548,1.,0.707106781186548,1.)))
REPRESENTATION_ITEM('')
SURFACE()
);
#29=TOROIDAL_SURFACE('',#769,1.3997278600804,0.125);
#30=STYLED_ITEM('',(#1331),#690);
#31=STYLED_ITEM('',(#1331),#691);
#32=STYLED_ITEM('',(#1331),#692);
#33=STYLED_ITEM('',(#1330),#23);
#34=STYLED_ITEM('',(#1330),#24);
#35=LINE('',#1067,#99);
#36=LINE('',#1070,#100);
#37=LINE('',#1119,#101);
#38=LINE('',#1122,#102);
#39=LINE('',#1125,#103);
#40=LINE('',#1133,#104);
#41=LINE('',#1135,#105);
#42=LINE('',#1142,#106);
#43=LINE('',#1144,#107);
#44=LINE('',#1148,#108);
#45=LINE('',#1150,#109);
#46=LINE('',#1152,#110);
#47=LINE('',#1154,#111);
#48=LINE('',#1156,#112);
#49=LINE('',#1157,#113);
#50=LINE('',#1160,#114);
#51=LINE('',#1162,#115);
#52=LINE('',#1163,#116);
#53=LINE('',#1166,#117);
#54=LINE('',#1167,#118);
#55=LINE('',#1170,#119);
#56=LINE('',#1171,#120);
#57=LINE('',#1174,#121);
#58=LINE('',#1176,#122);
#59=LINE('',#1177,#123);
#60=LINE('',#1179,#124);
#61=LINE('',#1181,#125);
#62=LINE('',#1185,#126);
#63=LINE('',#1187,#127);
#64=LINE('',#1189,#128);
#65=LINE('',#1190,#129);
#66=LINE('',#1193,#130);
#67=LINE('',#1195,#131);
#68=LINE('',#1196,#132);
#69=LINE('',#1199,#133);
#70=LINE('',#1200,#134);
#71=LINE('',#1203,#135);
#72=LINE('',#1204,#136);
#73=LINE('',#1206,#137);
#74=LINE('',#1210,#138);
#75=LINE('',#1212,#139);
#76=LINE('',#1214,#140);
#77=LINE('',#1216,#141);
#78=LINE('',#1218,#142);
#79=LINE('',#1220,#143);
#80=LINE('',#1222,#144);
#81=LINE('',#1223,#145);
#82=LINE('',#1229,#146);
#83=LINE('',#1230,#147);
#84=LINE('',#1235,#148);
#85=LINE('',#1237,#149);
#86=LINE('',#1239,#150);
#87=LINE('',#1241,#151);
#88=LINE('',#1242,#152);
#89=LINE('',#1244,#153);
#90=LINE('',#1245,#154);
#91=LINE('',#1247,#155);
#92=LINE('',#1250,#156);
#93=LINE('',#1252,#157);
#94=LINE('',#1257,#158);
#95=LINE('',#1262,#159);
#96=LINE('',#1269,#160);
#97=LINE('',#1276,#161);
#98=LINE('',#1284,#162);
#99=VECTOR('',#847,0.393700787401575);
#100=VECTOR('',#850,0.393700787401575);
#101=VECTOR('',#879,1.5247278600804);
#102=VECTOR('',#882,0.393700787401575);
#103=VECTOR('',#885,0.393700787401575);
#104=VECTOR('',#896,1.72834645669291);
#105=VECTOR('',#899,1.69748277496846);
#106=VECTOR('',#908,1.8414776841472);
#107=VECTOR('',#911,1.93897637795276);
#108=VECTOR('',#914,0.393700787401575);
#109=VECTOR('',#915,0.393700787401575);
#110=VECTOR('',#916,0.393700787401575);
#111=VECTOR('',#917,0.393700787401575);
#112=VECTOR('',#918,0.393700787401575);
#113=VECTOR('',#919,0.393700787401575);
#114=VECTOR('',#922,0.393700787401575);
#115=VECTOR('',#923,0.393700787401575);
#116=VECTOR('',#924,0.393700787401575);
#117=VECTOR('',#927,0.393700787401575);
#118=VECTOR('',#928,0.393700787401575);
#119=VECTOR('',#931,0.393700787401575);
#120=VECTOR('',#932,0.393700787401575);
#121=VECTOR('',#935,0.393700787401575);
#122=VECTOR('',#936,0.393700787401575);
#123=VECTOR('',#937,0.393700787401575);
#124=VECTOR('',#940,0.393700787401575);
#125=VECTOR('',#943,0.393700787401575);
#126=VECTOR('',#946,0.393700787401575);
#127=VECTOR('',#947,0.393700787401575);
#128=VECTOR('',#948,0.393700787401575);
#129=VECTOR('',#949,0.393700787401575);
#130=VECTOR('',#952,0.393700787401575);
#131=VECTOR('',#953,0.393700787401575);
#132=VECTOR('',#954,0.393700787401575);
#133=VECTOR('',#957,0.393700787401575);
#134=VECTOR('',#958,0.393700787401575);
#135=VECTOR('',#961,0.393700787401575);
#136=VECTOR('',#962,0.393700787401575);
#137=VECTOR('',#965,0.393700787401575);
#138=VECTOR('',#968,0.393700787401575);
#139=VECTOR('',#969,0.393700787401575);
#140=VECTOR('',#970,0.393700787401575);
#141=VECTOR('',#971,0.393700787401575);
#142=VECTOR('',#972,0.393700787401575);
#143=VECTOR('',#973,0.393700787401575);
#144=VECTOR('',#974,0.393700787401575);
#145=VECTOR('',#975,0.393700787401575);
#146=VECTOR('',#980,0.393700787401575);
#147=VECTOR('',#981,0.393700787401575);
#148=VECTOR('',#986,0.393700787401575);
#149=VECTOR('',#987,0.393700787401575);
#150=VECTOR('',#988,0.393700787401575);
#151=VECTOR('',#989,0.393700787401575);
#152=VECTOR('',#990,0.393700787401575);
#153=VECTOR('',#991,0.393700787401575);
#154=VECTOR('',#992,0.393700787401575);
#155=VECTOR('',#995,0.393700787401575);
#156=VECTOR('',#1000,0.393700787401575);
#157=VECTOR('',#1003,0.393700787401575);
#158=VECTOR('',#1010,0.472440944881889);
#159=VECTOR('',#1019,0.544003325205816);
#160=VECTOR('',#1028,1.775);
#161=VECTOR('',#1037,0.4865);
#162=VECTOR('',#1048,1.927);
#163=CYLINDRICAL_SURFACE('',#759,0.0590551181102362);
#164=CYLINDRICAL_SURFACE('',#774,1.5247278600804);
#165=CYLINDRICAL_SURFACE('',#776,0.0590551181102362);
#166=CYLINDRICAL_SURFACE('',#781,1.72834645669291);
#167=CYLINDRICAL_SURFACE('',#788,1.93897637795276);
#168=CYLINDRICAL_SURFACE('',#811,0.472440944881889);
#169=CYLINDRICAL_SURFACE('',#819,1.775);
#170=CYLINDRICAL_SURFACE('',#824,0.4865);
#171=CYLINDRICAL_SURFACE('',#828,1.927);
#172=FACE_BOUND('',#224,.T.);
#173=FACE_BOUND('',#228,.T.);
#174=FACE_BOUND('',#237,.T.);
#175=FACE_BOUND('',#256,.T.);
#176=FACE_BOUND('',#260,.T.);
#177=FACE_BOUND('',#267,.T.);
#178=FACE_BOUND('',#270,.T.);
#179=FACE_BOUND('',#273,.T.);
#180=FACE_OUTER_BOUND('',#223,.T.);
#181=FACE_OUTER_BOUND('',#225,.T.);
#182=FACE_OUTER_BOUND('',#226,.T.);
#183=FACE_OUTER_BOUND('',#227,.T.);
#184=FACE_OUTER_BOUND('',#229,.T.);
#185=FACE_OUTER_BOUND('',#230,.T.);
#186=FACE_OUTER_BOUND('',#231,.T.);
#187=FACE_OUTER_BOUND('',#232,.T.);
#188=FACE_OUTER_BOUND('',#233,.T.);
#189=FACE_OUTER_BOUND('',#234,.T.);
#190=FACE_OUTER_BOUND('',#235,.T.);
#191=FACE_OUTER_BOUND('',#236,.T.);
#192=FACE_OUTER_BOUND('',#238,.T.);
#193=FACE_OUTER_BOUND('',#239,.T.);
#194=FACE_OUTER_BOUND('',#240,.T.);
#195=FACE_OUTER_BOUND('',#241,.T.);
#196=FACE_OUTER_BOUND('',#242,.T.);
#197=FACE_OUTER_BOUND('',#243,.T.);
#198=FACE_OUTER_BOUND('',#244,.T.);
#199=FACE_OUTER_BOUND('',#245,.T.);
#200=FACE_OUTER_BOUND('',#246,.T.);
#201=FACE_OUTER_BOUND('',#247,.T.);
#202=FACE_OUTER_BOUND('',#248,.T.);
#203=FACE_OUTER_BOUND('',#249,.T.);
#204=FACE_OUTER_BOUND('',#250,.T.);
#205=FACE_OUTER_BOUND('',#251,.T.);
#206=FACE_OUTER_BOUND('',#252,.T.);
#207=FACE_OUTER_BOUND('',#253,.T.);
#208=FACE_OUTER_BOUND('',#254,.T.);
#209=FACE_OUTER_BOUND('',#255,.T.);
#210=FACE_OUTER_BOUND('',#257,.T.);
#211=FACE_OUTER_BOUND('',#258,.T.);
#212=FACE_OUTER_BOUND('',#259,.T.);
#213=FACE_OUTER_BOUND('',#261,.T.);
#214=FACE_OUTER_BOUND('',#262,.T.);
#215=FACE_OUTER_BOUND('',#263,.T.);
#216=FACE_OUTER_BOUND('',#264,.T.);
#217=FACE_OUTER_BOUND('',#265,.T.);
#218=FACE_OUTER_BOUND('',#266,.T.);
#219=FACE_OUTER_BOUND('',#268,.T.);
#220=FACE_OUTER_BOUND('',#269,.T.);
#221=FACE_OUTER_BOUND('',#271,.T.);
#222=FACE_OUTER_BOUND('',#272,.T.);
#223=EDGE_LOOP('',(#465));
#224=EDGE_LOOP('',(#466));
#225=EDGE_LOOP('',(#467,#468,#469,#470));
#226=EDGE_LOOP('',(#471,#472));
#227=EDGE_LOOP('',(#473));
#228=EDGE_LOOP('',(#474,#475,#476,#477));
#229=EDGE_LOOP('',(#478,#479,#480,#481));
#230=EDGE_LOOP('',(#482,#483,#484));
#231=EDGE_LOOP('',(#485,#486,#487,#488));
#232=EDGE_LOOP('',(#489,#490,#491,#492));
#233=EDGE_LOOP('',(#493,#494,#495));
#234=EDGE_LOOP('',(#496,#497,#498,#499,#500,#501,#502,#503,#504,#505,#506,
#507));
#235=EDGE_LOOP('',(#508,#509,#510,#511));
#236=EDGE_LOOP('',(#512));
#237=EDGE_LOOP('',(#513));
#238=EDGE_LOOP('',(#514,#515,#516,#517));
#239=EDGE_LOOP('',(#518,#519,#520,#521));
#240=EDGE_LOOP('',(#522,#523,#524,#525,#526,#527));
#241=EDGE_LOOP('',(#528,#529,#530,#531));
#242=EDGE_LOOP('',(#532,#533,#534,#535));
#243=EDGE_LOOP('',(#536,#537,#538,#539));
#244=EDGE_LOOP('',(#540,#541,#542,#543));
#245=EDGE_LOOP('',(#544,#545,#546,#547));
#246=EDGE_LOOP('',(#548,#549,#550,#551,#552,#553));
#247=EDGE_LOOP('',(#554,#555,#556,#557));
#248=EDGE_LOOP('',(#558,#559,#560,#561));
#249=EDGE_LOOP('',(#562,#563,#564,#565));
#250=EDGE_LOOP('',(#566,#567,#568,#569));
#251=EDGE_LOOP('',(#570,#571,#572,#573));
#252=EDGE_LOOP('',(#574,#575,#576,#577,#578,#579,#580,#581));
#253=EDGE_LOOP('',(#582,#583,#584,#585,#586));
#254=EDGE_LOOP('',(#587,#588,#589,#590,#591,#592,#593,#594));
#255=EDGE_LOOP('',(#595,#596,#597,#598));
#256=EDGE_LOOP('',(#599,#600,#601,#602));
#257=EDGE_LOOP('',(#603,#604,#605,#606));
#258=EDGE_LOOP('',(#607,#608,#609,#610));
#259=EDGE_LOOP('',(#611,#612,#613,#614));
#260=EDGE_LOOP('',(#615,#616,#617,#618));
#261=EDGE_LOOP('',(#619,#620,#621,#622,#623,#624,#625,#626,#627,#628,#629,
#630));
#262=EDGE_LOOP('',(#631,#632));
#263=EDGE_LOOP('',(#633,#634,#635,#636));
#264=EDGE_LOOP('',(#637,#638));
#265=EDGE_LOOP('',(#639,#640,#641,#642));
#266=EDGE_LOOP('',(#643));
#267=EDGE_LOOP('',(#644));
#268=EDGE_LOOP('',(#645,#646,#647,#648));
#269=EDGE_LOOP('',(#649));
#270=EDGE_LOOP('',(#650));
#271=EDGE_LOOP('',(#651,#652,#653,#654));
#272=EDGE_LOOP('',(#655));
#273=EDGE_LOOP('',(#656));
#274=CIRCLE('',#757,1.66661909324401);
#275=CIRCLE('',#758,0.615565705529743);
#276=CIRCLE('',#760,0.0590551181102362);
#277=CIRCLE('',#761,0.0590551181102362);
#278=CIRCLE('',#763,1.72834645669291);
#279=CIRCLE('',#765,1.93897637795276);
#280=CIRCLE('',#766,1.72834645669291);
#281=CIRCLE('',#767,0.0590551181102362);
#282=CIRCLE('',#768,1.72834645669291);
#283=CIRCLE('',#770,1.5247278600804);
#284=CIRCLE('',#771,0.125);
#285=CIRCLE('',#772,1.49144250503075);
#286=CIRCLE('',#773,2.02618749412462);
#287=CIRCLE('',#775,1.5247278600804);
#288=CIRCLE('',#777,0.0590551181102362);
#289=CIRCLE('',#779,1.72834645669291);
#290=CIRCLE('',#780,1.72834645669291);
#291=CIRCLE('',#782,1.72834645669291);
#292=CIRCLE('',#785,1.74397899034165);
#293=CIRCLE('',#787,1.93897637795276);
#294=CIRCLE('',#803,0.472440944881889);
#295=CIRCLE('',#804,0.472440944881889);
#296=CIRCLE('',#808,0.472440944881889);
#297=CIRCLE('',#812,0.472440944881889);
#298=CIRCLE('',#813,0.472440944881889);
#299=CIRCLE('',#814,0.472440944881889);
#300=CIRCLE('',#820,1.775);
#301=CIRCLE('',#821,1.775);
#302=CIRCLE('',#823,0.4865);
#303=CIRCLE('',#825,0.4865);
#304=CIRCLE('',#827,1.927);
#305=CIRCLE('',#829,1.927);
#306=VERTEX_POINT('',#1058);
#307=VERTEX_POINT('',#1060);
#308=VERTEX_POINT('',#1063);
#309=VERTEX_POINT('',#1064);
#310=VERTEX_POINT('',#1066);
#311=VERTEX_POINT('',#1068);
#312=VERTEX_POINT('',#1074);
#313=VERTEX_POINT('',#1076);
#314=VERTEX_POINT('',#1078);
#315=VERTEX_POINT('',#1082);
#316=VERTEX_POINT('',#1084);
#317=VERTEX_POINT('',#1114);
#318=VERTEX_POINT('',#1117);
#319=VERTEX_POINT('',#1121);
#320=VERTEX_POINT('',#1123);
#321=VERTEX_POINT('',#1127);
#322=VERTEX_POINT('',#1131);
#323=VERTEX_POINT('',#1137);
#324=VERTEX_POINT('',#1140);
#325=VERTEX_POINT('',#1146);
#326=VERTEX_POINT('',#1147);
#327=VERTEX_POINT('',#1149);
#328=VERTEX_POINT('',#1151);
#329=VERTEX_POINT('',#1153);
#330=VERTEX_POINT('',#1155);
#331=VERTEX_POINT('',#1159);
#332=VERTEX_POINT('',#1161);
#333=VERTEX_POINT('',#1165);
#334=VERTEX_POINT('',#1169);
#335=VERTEX_POINT('',#1173);
#336=VERTEX_POINT('',#1175);
#337=VERTEX_POINT('',#1183);
#338=VERTEX_POINT('',#1184);
#339=VERTEX_POINT('',#1186);
#340=VERTEX_POINT('',#1188);
#341=VERTEX_POINT('',#1192);
#342=VERTEX_POINT('',#1194);
#343=VERTEX_POINT('',#1198);
#344=VERTEX_POINT('',#1202);
#345=VERTEX_POINT('',#1208);
#346=VERTEX_POINT('',#1209);
#347=VERTEX_POINT('',#1211);
#348=VERTEX_POINT('',#1213);
#349=VERTEX_POINT('',#1215);
#350=VERTEX_POINT('',#1217);
#351=VERTEX_POINT('',#1219);
#352=VERTEX_POINT('',#1221);
#353=VERTEX_POINT('',#1225);
#354=VERTEX_POINT('',#1226);
#355=VERTEX_POINT('',#1228);
#356=VERTEX_POINT('',#1233);
#357=VERTEX_POINT('',#1234);
#358=VERTEX_POINT('',#1236);
#359=VERTEX_POINT('',#1238);
#360=VERTEX_POINT('',#1240);
#361=VERTEX_POINT('',#1243);
#362=VERTEX_POINT('',#1256);
#363=VERTEX_POINT('',#1266);
#364=VERTEX_POINT('',#1268);
#365=VERTEX_POINT('',#1272);
#366=VERTEX_POINT('',#1275);
#367=VERTEX_POINT('',#1279);
#368=VERTEX_POINT('',#1282);
#369=EDGE_CURVE('',#306,#306,#274,.T.);
#370=EDGE_CURVE('',#307,#307,#275,.T.);
#371=EDGE_CURVE('',#308,#309,#276,.T.);
#372=EDGE_CURVE('',#310,#308,#35,.T.);
#373=EDGE_CURVE('',#311,#310,#277,.T.);
#374=EDGE_CURVE('',#309,#311,#36,.T.);
#375=EDGE_CURVE('',#311,#310,#278,.T.);
#376=EDGE_CURVE('',#312,#312,#279,.T.);
#377=EDGE_CURVE('',#313,#309,#280,.T.);
#378=EDGE_CURVE('',#313,#314,#281,.T.);
#379=EDGE_CURVE('',#308,#314,#282,.T.);
#380=EDGE_CURVE('',#315,#315,#283,.T.);
#381=EDGE_CURVE('',#315,#316,#284,.T.);
#382=EDGE_CURVE('',#316,#316,#285,.T.);
#383=EDGE_CURVE('',#316,#317,#286,.T.);
#384=EDGE_CURVE('',#318,#318,#287,.T.);
#385=EDGE_CURVE('',#318,#315,#37,.T.);
#386=EDGE_CURVE('',#319,#313,#38,.T.);
#387=EDGE_CURVE('',#320,#319,#288,.T.);
#388=EDGE_CURVE('',#314,#320,#39,.T.);
#389=EDGE_CURVE('',#321,#319,#289,.T.);
#390=EDGE_CURVE('',#320,#321,#290,.T.);
#391=EDGE_CURVE('',#322,#322,#291,.T.);
#392=EDGE_CURVE('',#322,#321,#40,.T.);
#393=EDGE_CURVE('',#306,#322,#41,.T.);
#394=EDGE_CURVE('',#323,#323,#292,.T.);
#395=EDGE_CURVE('',#324,#324,#293,.T.);
#396=EDGE_CURVE('',#324,#323,#42,.T.);
#397=EDGE_CURVE('',#312,#324,#43,.T.);
#398=EDGE_CURVE('',#325,#326,#44,.T.);
#399=EDGE_CURVE('',#326,#327,#45,.T.);
#400=EDGE_CURVE('',#327,#328,#46,.T.);
#401=EDGE_CURVE('',#328,#329,#47,.T.);
#402=EDGE_CURVE('',#330,#329,#48,.T.);
#403=EDGE_CURVE('',#330,#325,#49,.T.);
#404=EDGE_CURVE('',#331,#326,#50,.T.);
#405=EDGE_CURVE('',#332,#331,#51,.T.);
#406=EDGE_CURVE('',#327,#332,#52,.T.);
#407=EDGE_CURVE('',#333,#332,#53,.T.);
#408=EDGE_CURVE('',#328,#333,#54,.T.);
#409=EDGE_CURVE('',#334,#333,#55,.T.);
#410=EDGE_CURVE('',#329,#334,#56,.T.);
#411=EDGE_CURVE('',#335,#330,#57,.T.);
#412=EDGE_CURVE('',#336,#335,#58,.T.);
#413=EDGE_CURVE('',#325,#336,#59,.T.);
#414=EDGE_CURVE('',#331,#336,#60,.T.);
#415=EDGE_CURVE('',#334,#335,#61,.T.);
#416=EDGE_CURVE('',#337,#338,#62,.T.);
#417=EDGE_CURVE('',#337,#339,#63,.T.);
#418=EDGE_CURVE('',#339,#340,#64,.T.);
#419=EDGE_CURVE('',#340,#338,#65,.T.);
#420=EDGE_CURVE('',#341,#337,#66,.T.);
#421=EDGE_CURVE('',#342,#341,#67,.T.);
#422=EDGE_CURVE('',#339,#342,#68,.T.);
#423=EDGE_CURVE('',#343,#342,#69,.T.);
#424=EDGE_CURVE('',#340,#343,#70,.T.);
#425=EDGE_CURVE('',#344,#343,#71,.T.);
#426=EDGE_CURVE('',#338,#344,#72,.T.);
#427=EDGE_CURVE('',#344,#341,#73,.T.);
#428=EDGE_CURVE('',#345,#346,#74,.T.);
#429=EDGE_CURVE('',#347,#345,#75,.T.);
#430=EDGE_CURVE('',#348,#347,#76,.T.);
#431=EDGE_CURVE('',#348,#349,#77,.T.);
#432=EDGE_CURVE('',#349,#350,#78,.T.);
#433=EDGE_CURVE('',#350,#351,#79,.T.);
#434=EDGE_CURVE('',#351,#352,#80,.T.);
#435=EDGE_CURVE('',#352,#346,#81,.T.);
#436=EDGE_CURVE('',#353,#354,#294,.T.);
#437=EDGE_CURVE('',#355,#353,#82,.T.);
#438=EDGE_CURVE('',#355,#349,#83,.T.);
#439=EDGE_CURVE('',#354,#348,#295,.T.);
#440=EDGE_CURVE('',#356,#357,#84,.T.);
#441=EDGE_CURVE('',#356,#358,#85,.T.);
#442=EDGE_CURVE('',#358,#359,#86,.T.);
#443=EDGE_CURVE('',#359,#360,#87,.T.);
#444=EDGE_CURVE('',#360,#355,#88,.T.);
#445=EDGE_CURVE('',#361,#353,#89,.T.);
#446=EDGE_CURVE('',#357,#361,#90,.T.);
#447=EDGE_CURVE('',#350,#360,#91,.T.);
#448=EDGE_CURVE('',#346,#356,#296,.T.);
#449=EDGE_CURVE('',#358,#352,#92,.T.);
#450=EDGE_CURVE('',#359,#351,#93,.T.);
#451=EDGE_CURVE('',#361,#357,#297,.T.);
#452=EDGE_CURVE('',#354,#362,#94,.T.);
#453=EDGE_CURVE('',#362,#362,#298,.T.);
#454=EDGE_CURVE('',#345,#347,#299,.T.);
#455=EDGE_CURVE('',#362,#307,#95,.T.);
#456=EDGE_CURVE('',#363,#363,#300,.T.);
#457=EDGE_CURVE('',#363,#364,#96,.T.);
#458=EDGE_CURVE('',#364,#364,#301,.T.);
#459=EDGE_CURVE('',#365,#365,#302,.T.);
#460=EDGE_CURVE('',#365,#366,#97,.T.);
#461=EDGE_CURVE('',#366,#366,#303,.T.);
#462=EDGE_CURVE('',#367,#367,#304,.T.);
#463=EDGE_CURVE('',#368,#368,#305,.T.);
#464=EDGE_CURVE('',#368,#367,#98,.T.);
#465=ORIENTED_EDGE('',*,*,#369,.T.);
#466=ORIENTED_EDGE('',*,*,#370,.F.);
#467=ORIENTED_EDGE('',*,*,#371,.F.);
#468=ORIENTED_EDGE('',*,*,#372,.F.);
#469=ORIENTED_EDGE('',*,*,#373,.F.);
#470=ORIENTED_EDGE('',*,*,#374,.F.);
#471=ORIENTED_EDGE('',*,*,#373,.T.);
#472=ORIENTED_EDGE('',*,*,#375,.F.);
#473=ORIENTED_EDGE('',*,*,#376,.T.);
#474=ORIENTED_EDGE('',*,*,#371,.T.);
#475=ORIENTED_EDGE('',*,*,#377,.F.);
#476=ORIENTED_EDGE('',*,*,#378,.T.);
#477=ORIENTED_EDGE('',*,*,#379,.F.);
#478=ORIENTED_EDGE('',*,*,#380,.T.);
#479=ORIENTED_EDGE('',*,*,#381,.T.);
#480=ORIENTED_EDGE('',*,*,#382,.T.);
#481=ORIENTED_EDGE('',*,*,#381,.F.);
#482=ORIENTED_EDGE('',*,*,#382,.F.);
#483=ORIENTED_EDGE('',*,*,#383,.T.);
#484=ORIENTED_EDGE('',*,*,#383,.F.);
#485=ORIENTED_EDGE('',*,*,#384,.F.);
#486=ORIENTED_EDGE('',*,*,#385,.T.);
#487=ORIENTED_EDGE('',*,*,#380,.F.);
#488=ORIENTED_EDGE('',*,*,#385,.F.);
#489=ORIENTED_EDGE('',*,*,#378,.F.);
#490=ORIENTED_EDGE('',*,*,#386,.F.);
#491=ORIENTED_EDGE('',*,*,#387,.F.);
#492=ORIENTED_EDGE('',*,*,#388,.F.);
#493=ORIENTED_EDGE('',*,*,#387,.T.);
#494=ORIENTED_EDGE('',*,*,#389,.F.);
#495=ORIENTED_EDGE('',*,*,#390,.F.);
#496=ORIENTED_EDGE('',*,*,#391,.F.);
#497=ORIENTED_EDGE('',*,*,#392,.T.);
#498=ORIENTED_EDGE('',*,*,#389,.T.);
#499=ORIENTED_EDGE('',*,*,#386,.T.);
#500=ORIENTED_EDGE('',*,*,#377,.T.);
#501=ORIENTED_EDGE('',*,*,#374,.T.);
#502=ORIENTED_EDGE('',*,*,#375,.T.);
#503=ORIENTED_EDGE('',*,*,#372,.T.);
#504=ORIENTED_EDGE('',*,*,#379,.T.);
#505=ORIENTED_EDGE('',*,*,#388,.T.);
#506=ORIENTED_EDGE('',*,*,#390,.T.);
#507=ORIENTED_EDGE('',*,*,#392,.F.);
#508=ORIENTED_EDGE('',*,*,#369,.F.);
#509=ORIENTED_EDGE('',*,*,#393,.T.);
#510=ORIENTED_EDGE('',*,*,#391,.T.);
#511=ORIENTED_EDGE('',*,*,#393,.F.);
#512=ORIENTED_EDGE('',*,*,#394,.F.);
#513=ORIENTED_EDGE('',*,*,#384,.T.);
#514=ORIENTED_EDGE('',*,*,#395,.F.);
#515=ORIENTED_EDGE('',*,*,#396,.T.);
#516=ORIENTED_EDGE('',*,*,#394,.T.);
#517=ORIENTED_EDGE('',*,*,#396,.F.);
#518=ORIENTED_EDGE('',*,*,#376,.F.);
#519=ORIENTED_EDGE('',*,*,#397,.T.);
#520=ORIENTED_EDGE('',*,*,#395,.T.);
#521=ORIENTED_EDGE('',*,*,#397,.F.);
#522=ORIENTED_EDGE('',*,*,#398,.T.);
#523=ORIENTED_EDGE('',*,*,#399,.T.);
#524=ORIENTED_EDGE('',*,*,#400,.T.);
#525=ORIENTED_EDGE('',*,*,#401,.T.);
#526=ORIENTED_EDGE('',*,*,#402,.F.);
#527=ORIENTED_EDGE('',*,*,#403,.T.);
#528=ORIENTED_EDGE('',*,*,#404,.F.);
#529=ORIENTED_EDGE('',*,*,#405,.F.);
#530=ORIENTED_EDGE('',*,*,#406,.F.);
#531=ORIENTED_EDGE('',*,*,#399,.F.);
#532=ORIENTED_EDGE('',*,*,#406,.T.);
#533=ORIENTED_EDGE('',*,*,#407,.F.);
#534=ORIENTED_EDGE('',*,*,#408,.F.);
#535=ORIENTED_EDGE('',*,*,#400,.F.);
#536=ORIENTED_EDGE('',*,*,#408,.T.);
#537=ORIENTED_EDGE('',*,*,#409,.F.);
#538=ORIENTED_EDGE('',*,*,#410,.F.);
#539=ORIENTED_EDGE('',*,*,#401,.F.);
#540=ORIENTED_EDGE('',*,*,#411,.F.);
#541=ORIENTED_EDGE('',*,*,#412,.F.);
#542=ORIENTED_EDGE('',*,*,#413,.F.);
#543=ORIENTED_EDGE('',*,*,#403,.F.);
#544=ORIENTED_EDGE('',*,*,#413,.T.);
#545=ORIENTED_EDGE('',*,*,#414,.F.);
#546=ORIENTED_EDGE('',*,*,#404,.T.);
#547=ORIENTED_EDGE('',*,*,#398,.F.);
#548=ORIENTED_EDGE('',*,*,#414,.T.);
#549=ORIENTED_EDGE('',*,*,#412,.T.);
#550=ORIENTED_EDGE('',*,*,#415,.F.);
#551=ORIENTED_EDGE('',*,*,#409,.T.);
#552=ORIENTED_EDGE('',*,*,#407,.T.);
#553=ORIENTED_EDGE('',*,*,#405,.T.);
#554=ORIENTED_EDGE('',*,*,#416,.F.);
#555=ORIENTED_EDGE('',*,*,#417,.T.);
#556=ORIENTED_EDGE('',*,*,#418,.T.);
#557=ORIENTED_EDGE('',*,*,#419,.T.);
#558=ORIENTED_EDGE('',*,*,#420,.F.);
#559=ORIENTED_EDGE('',*,*,#421,.F.);
#560=ORIENTED_EDGE('',*,*,#422,.F.);
#561=ORIENTED_EDGE('',*,*,#417,.F.);
#562=ORIENTED_EDGE('',*,*,#422,.T.);
#563=ORIENTED_EDGE('',*,*,#423,.F.);
#564=ORIENTED_EDGE('',*,*,#424,.F.);
#565=ORIENTED_EDGE('',*,*,#418,.F.);
#566=ORIENTED_EDGE('',*,*,#424,.T.);
#567=ORIENTED_EDGE('',*,*,#425,.F.);
#568=ORIENTED_EDGE('',*,*,#426,.F.);
#569=ORIENTED_EDGE('',*,*,#419,.F.);
#570=ORIENTED_EDGE('',*,*,#427,.F.);
#571=ORIENTED_EDGE('',*,*,#425,.T.);
#572=ORIENTED_EDGE('',*,*,#423,.T.);
#573=ORIENTED_EDGE('',*,*,#421,.T.);
#574=ORIENTED_EDGE('',*,*,#428,.F.);
#575=ORIENTED_EDGE('',*,*,#429,.F.);
#576=ORIENTED_EDGE('',*,*,#430,.F.);
#577=ORIENTED_EDGE('',*,*,#431,.T.);
#578=ORIENTED_EDGE('',*,*,#432,.T.);
#579=ORIENTED_EDGE('',*,*,#433,.T.);
#580=ORIENTED_EDGE('',*,*,#434,.T.);
#581=ORIENTED_EDGE('',*,*,#435,.T.);
#582=ORIENTED_EDGE('',*,*,#436,.F.);
#583=ORIENTED_EDGE('',*,*,#437,.F.);
#584=ORIENTED_EDGE('',*,*,#438,.T.);
#585=ORIENTED_EDGE('',*,*,#431,.F.);
#586=ORIENTED_EDGE('',*,*,#439,.F.);
#587=ORIENTED_EDGE('',*,*,#440,.F.);
#588=ORIENTED_EDGE('',*,*,#441,.T.);
#589=ORIENTED_EDGE('',*,*,#442,.T.);
#590=ORIENTED_EDGE('',*,*,#443,.T.);
#591=ORIENTED_EDGE('',*,*,#444,.T.);
#592=ORIENTED_EDGE('',*,*,#437,.T.);
#593=ORIENTED_EDGE('',*,*,#445,.F.);
#594=ORIENTED_EDGE('',*,*,#446,.F.);
#595=ORIENTED_EDGE('',*,*,#447,.F.);
#596=ORIENTED_EDGE('',*,*,#432,.F.);
#597=ORIENTED_EDGE('',*,*,#438,.F.);
#598=ORIENTED_EDGE('',*,*,#444,.F.);
#599=ORIENTED_EDGE('',*,*,#416,.T.);
#600=ORIENTED_EDGE('',*,*,#426,.T.);
#601=ORIENTED_EDGE('',*,*,#427,.T.);
#602=ORIENTED_EDGE('',*,*,#420,.T.);
#603=ORIENTED_EDGE('',*,*,#448,.F.);
#604=ORIENTED_EDGE('',*,*,#435,.F.);
#605=ORIENTED_EDGE('',*,*,#449,.F.);
#606=ORIENTED_EDGE('',*,*,#441,.F.);
#607=ORIENTED_EDGE('',*,*,#449,.T.);
#608=ORIENTED_EDGE('',*,*,#434,.F.);
#609=ORIENTED_EDGE('',*,*,#450,.F.);
#610=ORIENTED_EDGE('',*,*,#442,.F.);
#611=ORIENTED_EDGE('',*,*,#450,.T.);
#612=ORIENTED_EDGE('',*,*,#433,.F.);
#613=ORIENTED_EDGE('',*,*,#447,.T.);
#614=ORIENTED_EDGE('',*,*,#443,.F.);
#615=ORIENTED_EDGE('',*,*,#402,.T.);
#616=ORIENTED_EDGE('',*,*,#410,.T.);
#617=ORIENTED_EDGE('',*,*,#415,.T.);
#618=ORIENTED_EDGE('',*,*,#411,.T.);
#619=ORIENTED_EDGE('',*,*,#428,.T.);
#620=ORIENTED_EDGE('',*,*,#448,.T.);
#621=ORIENTED_EDGE('',*,*,#440,.T.);
#622=ORIENTED_EDGE('',*,*,#451,.F.);
#623=ORIENTED_EDGE('',*,*,#445,.T.);
#624=ORIENTED_EDGE('',*,*,#436,.T.);
#625=ORIENTED_EDGE('',*,*,#452,.T.);
#626=ORIENTED_EDGE('',*,*,#453,.T.);
#627=ORIENTED_EDGE('',*,*,#452,.F.);
#628=ORIENTED_EDGE('',*,*,#439,.T.);
#629=ORIENTED_EDGE('',*,*,#430,.T.);
#630=ORIENTED_EDGE('',*,*,#454,.F.);
#631=ORIENTED_EDGE('',*,*,#446,.T.);
#632=ORIENTED_EDGE('',*,*,#451,.T.);
#633=ORIENTED_EDGE('',*,*,#453,.F.);
#634=ORIENTED_EDGE('',*,*,#455,.T.);
#635=ORIENTED_EDGE('',*,*,#370,.T.);
#636=ORIENTED_EDGE('',*,*,#455,.F.);
#637=ORIENTED_EDGE('',*,*,#429,.T.);
#638=ORIENTED_EDGE('',*,*,#454,.T.);
#639=ORIENTED_EDGE('',*,*,#456,.T.);
#640=ORIENTED_EDGE('',*,*,#457,.T.);
#641=ORIENTED_EDGE('',*,*,#458,.F.);
#642=ORIENTED_EDGE('',*,*,#457,.F.);
#643=ORIENTED_EDGE('',*,*,#458,.T.);
#644=ORIENTED_EDGE('',*,*,#459,.F.);
#645=ORIENTED_EDGE('',*,*,#459,.T.);
#646=ORIENTED_EDGE('',*,*,#460,.T.);
#647=ORIENTED_EDGE('',*,*,#461,.F.);
#648=ORIENTED_EDGE('',*,*,#460,.F.);
#649=ORIENTED_EDGE('',*,*,#462,.F.);
#650=ORIENTED_EDGE('',*,*,#461,.T.);
#651=ORIENTED_EDGE('',*,*,#463,.F.);
#652=ORIENTED_EDGE('',*,*,#464,.T.);
#653=ORIENTED_EDGE('',*,*,#462,.T.);
#654=ORIENTED_EDGE('',*,*,#464,.F.);
#655=ORIENTED_EDGE('',*,*,#463,.T.);
#656=ORIENTED_EDGE('',*,*,#456,.F.);
#657=PLANE('',#756);
#658=PLANE('',#762);
#659=PLANE('',#764);
#660=PLANE('',#778);
#661=PLANE('',#784);
#662=PLANE('',#789);
#663=PLANE('',#790);
#664=PLANE('',#791);
#665=PLANE('',#792);
#666=PLANE('',#793);
#667=PLANE('',#794);
#668=PLANE('',#795);
#669=PLANE('',#796);
#670=PLANE('',#797);
#671=PLANE('',#798);
#672=PLANE('',#799);
#673=PLANE('',#800);
#674=PLANE('',#801);
#675=PLANE('',#802);
#676=PLANE('',#805);
#677=PLANE('',#806);
#678=PLANE('',#807);
#679=PLANE('',#809);
#680=PLANE('',#810);
#681=PLANE('',#815);
#682=PLANE('',#817);
#683=PLANE('',#822);
#684=PLANE('',#826);
#685=PLANE('',#830);
#686=ADVANCED_FACE('',(#180,#172),#657,.T.);
#687=ADVANCED_FACE('',(#181),#163,.T.);
#688=ADVANCED_FACE('',(#182),#658,.T.);
#689=ADVANCED_FACE('',(#183,#173),#659,.T.);
#690=ADVANCED_FACE('',(#184),#29,.T.);
#691=ADVANCED_FACE('',(#185),#28,.F.);
#692=ADVANCED_FACE('',(#186),#164,.T.);
#693=ADVANCED_FACE('',(#187),#165,.T.);
#694=ADVANCED_FACE('',(#188),#660,.T.);
#695=ADVANCED_FACE('',(#189),#166,.T.);
#696=ADVANCED_FACE('',(#190),#25,.T.);
#697=ADVANCED_FACE('',(#191,#174),#661,.T.);
#698=ADVANCED_FACE('',(#192),#26,.T.);
#699=ADVANCED_FACE('',(#193),#167,.T.);
#700=ADVANCED_FACE('',(#194),#662,.T.);
#701=ADVANCED_FACE('',(#195),#663,.T.);
#702=ADVANCED_FACE('',(#196),#664,.T.);
#703=ADVANCED_FACE('',(#197),#665,.T.);
#704=ADVANCED_FACE('',(#198),#666,.T.);
#705=ADVANCED_FACE('',(#199),#667,.T.);
#706=ADVANCED_FACE('',(#200),#668,.T.);
#707=ADVANCED_FACE('',(#201),#669,.T.);
#708=ADVANCED_FACE('',(#202),#670,.T.);
#709=ADVANCED_FACE('',(#203),#671,.T.);
#710=ADVANCED_FACE('',(#204),#672,.T.);
#711=ADVANCED_FACE('',(#205),#673,.T.);
#712=ADVANCED_FACE('',(#206),#674,.T.);
#713=ADVANCED_FACE('',(#207),#675,.T.);
#714=ADVANCED_FACE('',(#208),#676,.T.);
#715=ADVANCED_FACE('',(#209,#175),#677,.T.);
#716=ADVANCED_FACE('',(#210),#678,.T.);
#717=ADVANCED_FACE('',(#211),#679,.T.);
#718=ADVANCED_FACE('',(#212,#176),#680,.T.);
#719=ADVANCED_FACE('',(#213),#168,.T.);
#720=ADVANCED_FACE('',(#214),#681,.T.);
#721=ADVANCED_FACE('',(#215),#27,.T.);
#722=ADVANCED_FACE('',(#216),#682,.T.);
#723=ADVANCED_FACE('',(#217),#169,.F.);
#724=ADVANCED_FACE('',(#218,#177),#683,.T.);
#725=ADVANCED_FACE('',(#219),#170,.F.);
#726=ADVANCED_FACE('',(#220,#178),#684,.T.);
#727=ADVANCED_FACE('',(#221),#171,.T.);
#728=ADVANCED_FACE('',(#222,#179),#685,.T.);
#729=CLOSED_SHELL('',(#686,#687,#688,#689,#690,#691,#692,#693,#694,#695,
#696,#697,#698,#699,#700,#701,#702,#703,#704,#705,#706,#707,#708,#709,#710,
#711,#712,#713,#714,#715,#716,#717,#718,#719,#720,#721,#722));
#730=CLOSED_SHELL('',(#723,#724,#725,#726,#727,#728));
#731=DERIVED_UNIT_ELEMENT(#735,1.);
#732=DERIVED_UNIT_ELEMENT(#1299,-3.);
#733=DERIVED_UNIT_ELEMENT(#735,1.);
#734=DERIVED_UNIT_ELEMENT(#1299,-3.);
#735=(
MASS_UNIT()
NAMED_UNIT(*)
SI_UNIT(.KILO.,.GRAM.)
);
#736=DERIVED_UNIT((#731,#732));
#737=DERIVED_UNIT((#733,#734));
#738=MEASURE_REPRESENTATION_ITEM('density measure',
POSITIVE_RATIO_MEASURE(7850.),#736);
#739=MEASURE_REPRESENTATION_ITEM('density measure',
POSITIVE_RATIO_MEASURE(7850.),#737);
#740=PROPERTY_DEFINITION_REPRESENTATION(#750,#744);
#741=PROPERTY_DEFINITION_REPRESENTATION(#751,#745);
#742=PROPERTY_DEFINITION_REPRESENTATION(#752,#746);
#743=PROPERTY_DEFINITION_REPRESENTATION(#753,#747);
#744=REPRESENTATION('material name',(#748),#1293);
#745=REPRESENTATION('density',(#738),#1293);
#746=REPRESENTATION('material name',(#749),#1294);
#747=REPRESENTATION('density',(#739),#1294);
#748=DESCRIPTIVE_REPRESENTATION_ITEM('Steel','Steel');
#749=DESCRIPTIVE_REPRESENTATION_ITEM('Steel','Steel');
#750=PROPERTY_DEFINITION('material property','material name',#1316);
#751=PROPERTY_DEFINITION('material property','density of part',#1316);
#752=PROPERTY_DEFINITION('material property','material name',#1317);
#753=PROPERTY_DEFINITION('material property','density of part',#1317);
#754=AXIS2_PLACEMENT_3D('',#1055,#833,#834);
#755=AXIS2_PLACEMENT_3D('',#1056,#835,#836);
#756=AXIS2_PLACEMENT_3D('',#1057,#837,#838);
#757=AXIS2_PLACEMENT_3D('',#1059,#839,#840);
#758=AXIS2_PLACEMENT_3D('',#1061,#841,#842);
#759=AXIS2_PLACEMENT_3D('',#1062,#843,#844);
#760=AXIS2_PLACEMENT_3D('',#1065,#845,#846);
#761=AXIS2_PLACEMENT_3D('',#1069,#848,#849);
#762=AXIS2_PLACEMENT_3D('',#1071,#851,#852);
#763=AXIS2_PLACEMENT_3D('',#1072,#853,#854);
#764=AXIS2_PLACEMENT_3D('',#1073,#855,#856);
#765=AXIS2_PLACEMENT_3D('',#1075,#857,#858);
#766=AXIS2_PLACEMENT_3D('',#1077,#859,#860);
#767=AXIS2_PLACEMENT_3D('',#1079,#861,#862);
#768=AXIS2_PLACEMENT_3D('',#1080,#863,#864);
#769=AXIS2_PLACEMENT_3D('',#1081,#865,#866);
#770=AXIS2_PLACEMENT_3D('',#1083,#867,#868);
#771=AXIS2_PLACEMENT_3D('',#1085,#869,#870);
#772=AXIS2_PLACEMENT_3D('',#1086,#871,#872);
#773=AXIS2_PLACEMENT_3D('',#1115,#873,#874);
#774=AXIS2_PLACEMENT_3D('',#1116,#875,#876);
#775=AXIS2_PLACEMENT_3D('',#1118,#877,#878);
#776=AXIS2_PLACEMENT_3D('',#1120,#880,#881);
#777=AXIS2_PLACEMENT_3D('',#1124,#883,#884);
#778=AXIS2_PLACEMENT_3D('',#1126,#886,#887);
#779=AXIS2_PLACEMENT_3D('',#1128,#888,#889);
#780=AXIS2_PLACEMENT_3D('',#1129,#890,#891);
#781=AXIS2_PLACEMENT_3D('',#1130,#892,#893);
#782=AXIS2_PLACEMENT_3D('',#1132,#894,#895);
#783=AXIS2_PLACEMENT_3D('',#1134,#897,#898);
#784=AXIS2_PLACEMENT_3D('',#1136,#900,#901);
#785=AXIS2_PLACEMENT_3D('',#1138,#902,#903);
#786=AXIS2_PLACEMENT_3D('',#1139,#904,#905);
#787=AXIS2_PLACEMENT_3D('',#1141,#906,#907);
#788=AXIS2_PLACEMENT_3D('',#1143,#909,#910);
#789=AXIS2_PLACEMENT_3D('',#1145,#912,#913);
#790=AXIS2_PLACEMENT_3D('',#1158,#920,#921);
#791=AXIS2_PLACEMENT_3D('',#1164,#925,#926);
#792=AXIS2_PLACEMENT_3D('',#1168,#929,#930);
#793=AXIS2_PLACEMENT_3D('',#1172,#933,#934);
#794=AXIS2_PLACEMENT_3D('',#1178,#938,#939);
#795=AXIS2_PLACEMENT_3D('',#1180,#941,#942);
#796=AXIS2_PLACEMENT_3D('',#1182,#944,#945);
#797=AXIS2_PLACEMENT_3D('',#1191,#950,#951);
#798=AXIS2_PLACEMENT_3D('',#1197,#955,#956);
#799=AXIS2_PLACEMENT_3D('',#1201,#959,#960);
#800=AXIS2_PLACEMENT_3D('',#1205,#963,#964);
#801=AXIS2_PLACEMENT_3D('',#1207,#966,#967);
#802=AXIS2_PLACEMENT_3D('',#1224,#976,#977);
#803=AXIS2_PLACEMENT_3D('',#1227,#978,#979);
#804=AXIS2_PLACEMENT_3D('',#1231,#982,#983);
#805=AXIS2_PLACEMENT_3D('',#1232,#984,#985);
#806=AXIS2_PLACEMENT_3D('',#1246,#993,#994);
#807=AXIS2_PLACEMENT_3D('',#1248,#996,#997);
#808=AXIS2_PLACEMENT_3D('',#1249,#998,#999);
#809=AXIS2_PLACEMENT_3D('',#1251,#1001,#1002);
#810=AXIS2_PLACEMENT_3D('',#1253,#1004,#1005);
#811=AXIS2_PLACEMENT_3D('',#1254,#1006,#1007);
#812=AXIS2_PLACEMENT_3D('',#1255,#1008,#1009);
#813=AXIS2_PLACEMENT_3D('',#1258,#1011,#1012);
#814=AXIS2_PLACEMENT_3D('',#1259,#1013,#1014);
#815=AXIS2_PLACEMENT_3D('',#1260,#1015,#1016);
#816=AXIS2_PLACEMENT_3D('',#1261,#1017,#1018);
#817=AXIS2_PLACEMENT_3D('',#1263,#1020,#1021);
#818=AXIS2_PLACEMENT_3D('',#1264,#1022,#1023);
#819=AXIS2_PLACEMENT_3D('',#1265,#1024,#1025);
#820=AXIS2_PLACEMENT_3D('',#1267,#1026,#1027);
#821=AXIS2_PLACEMENT_3D('',#1270,#1029,#1030);
#822=AXIS2_PLACEMENT_3D('',#1271,#1031,#1032);
#823=AXIS2_PLACEMENT_3D('',#1273,#1033,#1034);
#824=AXIS2_PLACEMENT_3D('',#1274,#1035,#1036);
#825=AXIS2_PLACEMENT_3D('',#1277,#1038,#1039);
#826=AXIS2_PLACEMENT_3D('',#1278,#1040,#1041);
#827=AXIS2_PLACEMENT_3D('',#1280,#1042,#1043);
#828=AXIS2_PLACEMENT_3D('',#1281,#1044,#1045);
#829=AXIS2_PLACEMENT_3D('',#1283,#1046,#1047);
#830=AXIS2_PLACEMENT_3D('',#1285,#1049,#1050);
#831=AXIS2_PLACEMENT_3D('',#1286,#1051,#1052);
#832=AXIS2_PLACEMENT_3D('',#1287,#1053,#1054);
#833=DIRECTION('axis',(0.,0.,1.));
#834=DIRECTION('refdir',(1.,0.,0.));
#835=DIRECTION('axis',(0.,0.,1.));
#836=DIRECTION('refdir',(1.,0.,0.));
#837=DIRECTION('center_axis',(0.,-1.,0.));
#838=DIRECTION('ref_axis',(0.,0.,-1.));
#839=DIRECTION('center_axis',(0.,-1.,0.));
#840=DIRECTION('ref_axis',(1.,0.,0.));
#841=DIRECTION('center_axis',(0.,-1.,1.42014304910026E-16));
#842=DIRECTION('ref_axis',(1.,0.,0.));
#843=DIRECTION('center_axis',(0.,-1.,0.));
#844=DIRECTION('ref_axis',(-1.,0.,1.22464679914735E-16));
#845=DIRECTION('center_axis',(0.,1.,0.));
#846=DIRECTION('ref_axis',(-1.,0.,1.22464679914735E-16));
#847=DIRECTION('',(0.,1.,0.));
#848=DIRECTION('center_axis',(0.,-1.,0.));
#849=DIRECTION('ref_axis',(-1.,0.,1.22464679914735E-16));
#850=DIRECTION('',(0.,-1.,0.));
#851=DIRECTION('center_axis',(0.,-1.,0.));
#852=DIRECTION('ref_axis',(-1.,0.,1.22464679914735E-16));
#853=DIRECTION('center_axis',(0.,-1.,0.));
#854=DIRECTION('ref_axis',(0.,0.,-1.));
#855=DIRECTION('center_axis',(0.,-1.,0.));
#856=DIRECTION('ref_axis',(0.,0.,-1.));
#857=DIRECTION('center_axis',(0.,-1.,0.));
#858=DIRECTION('ref_axis',(1.,0.,0.));
#859=DIRECTION('center_axis',(0.,-1.,0.));
#860=DIRECTION('ref_axis',(1.,0.,0.));
#861=DIRECTION('center_axis',(0.,1.,0.));
#862=DIRECTION('ref_axis',(1.,0.,0.));
#863=DIRECTION('center_axis',(0.,-1.,0.));
#864=DIRECTION('ref_axis',(1.,0.,0.));
#865=DIRECTION('center_axis',(0.,-1.,0.));
#866=DIRECTION('ref_axis',(0.,0.,-1.));
#867=DIRECTION('center_axis',(0.,1.,0.));
#868=DIRECTION('ref_axis',(6.12323399573677E-17,0.,1.));
#869=DIRECTION('center_axis',(-1.,0.,-1.22464679914735E-16));
#870=DIRECTION('ref_axis',(-1.22464679914735E-16,0.,1.));
#871=DIRECTION('center_axis',(0.,-1.,0.));
#872=DIRECTION('ref_axis',(6.12323399573677E-17,0.,1.));
#873=DIRECTION('center_axis',(-1.,0.,-1.22464679914735E-16));
#874=DIRECTION('ref_axis',(-1.22464679914735E-16,0.,1.));
#875=DIRECTION('center_axis',(0.,-1.,0.));
#876=DIRECTION('ref_axis',(0.,0.,-1.));
#877=DIRECTION('center_axis',(0.,-1.,0.));
#878=DIRECTION('ref_axis',(1.,0.,0.));
#879=DIRECTION('',(0.,1.,0.));
#880=DIRECTION('center_axis',(0.,-1.,0.));
#881=DIRECTION('ref_axis',(1.,0.,0.));
#882=DIRECTION('',(0.,1.,0.));
#883=DIRECTION('center_axis',(0.,-1.,0.));
#884=DIRECTION('ref_axis',(1.,0.,0.));
#885=DIRECTION('',(0.,-1.,0.));
#886=DIRECTION('center_axis',(0.,-1.,0.));
#887=DIRECTION('ref_axis',(1.,0.,0.));
#888=DIRECTION('center_axis',(0.,-1.,0.));
#889=DIRECTION('ref_axis',(0.,0.,-1.));
#890=DIRECTION('center_axis',(0.,-1.,0.));
#891=DIRECTION('ref_axis',(0.,0.,-1.));
#892=DIRECTION('center_axis',(0.,-1.,0.));
#893=DIRECTION('ref_axis',(0.,0.,-1.));
#894=DIRECTION('center_axis',(0.,-1.,0.));
#895=DIRECTION('ref_axis',(1.,0.,0.));
#896=DIRECTION('',(0.,1.,0.));
#897=DIRECTION('center_axis',(0.,1.,0.));
#898=DIRECTION('ref_axis',(0.,0.,-1.));
#899=DIRECTION('',(-9.06596916612323E-17,0.672284852197805,0.740292562103237));
#900=DIRECTION('center_axis',(0.,1.,0.));
#901=DIRECTION('ref_axis',(0.,0.,1.));
#902=DIRECTION('center_axis',(0.,-1.,0.));
#903=DIRECTION('ref_axis',(1.,0.,0.));
#904=DIRECTION('center_axis',(0.,-1.,0.));
#905=DIRECTION('ref_axis',(0.,0.,-1.));
#906=DIRECTION('center_axis',(0.,-1.,0.));
#907=DIRECTION('ref_axis',(1.,0.,0.));
#908=DIRECTION('',(8.70410694923197E-17,0.703450483731574,-0.710744269718592));
#909=DIRECTION('center_axis',(0.,-1.,0.));
#910=DIRECTION('ref_axis',(0.,0.,-1.));
#911=DIRECTION('',(0.,1.,0.));
#912=DIRECTION('center_axis',(-1.,0.,0.));
#913=DIRECTION('ref_axis',(0.,0.,1.));
#914=DIRECTION('',(0.,0.,1.));
#915=DIRECTION('',(0.,1.,0.));
#916=DIRECTION('',(0.,0.,-1.));
#917=DIRECTION('',(0.,1.,0.));
#918=DIRECTION('',(0.,0.,1.));
#919=DIRECTION('',(0.,-1.,0.));
#920=DIRECTION('center_axis',(0.,0.,1.));
#921=DIRECTION('ref_axis',(0.,-1.,0.));
#922=DIRECTION('',(-1.,0.,0.));
#923=DIRECTION('',(0.,-1.,0.));
#924=DIRECTION('',(1.,0.,0.));
#925=DIRECTION('center_axis',(0.,1.,0.));
#926=DIRECTION('ref_axis',(0.,0.,1.));
#927=DIRECTION('',(0.,0.,1.));
#928=DIRECTION('',(1.,0.,0.));
#929=DIRECTION('center_axis',(0.,0.,1.));
#930=DIRECTION('ref_axis',(0.,-1.,0.));
#931=DIRECTION('',(0.,-1.,0.));
#932=DIRECTION('',(1.,0.,0.));
#933=DIRECTION('center_axis',(0.,0.,-1.));
#934=DIRECTION('ref_axis',(0.,1.,0.));
#935=DIRECTION('',(-1.,0.,0.));
#936=DIRECTION('',(0.,1.,0.));
#937=DIRECTION('',(1.,0.,0.));
#938=DIRECTION('center_axis',(0.,-1.,0.));
#939=DIRECTION('ref_axis',(0.,0.,-1.));
#940=DIRECTION('',(0.,0.,-1.));
#941=DIRECTION('center_axis',(1.,0.,0.));
#942=DIRECTION('ref_axis',(0.,0.,-1.));
#943=DIRECTION('',(0.,0.,-1.));
#944=DIRECTION('center_axis',(-1.,0.,0.));
#945=DIRECTION('ref_axis',(0.,0.,1.));
#946=DIRECTION('',(0.,1.,0.));
#947=DIRECTION('',(0.,0.,1.));
#948=DIRECTION('',(0.,1.,0.));
#949=DIRECTION('',(0.,0.,-1.));
#950=DIRECTION('center_axis',(0.,-1.,0.));
#951=DIRECTION('ref_axis',(0.,0.,-1.));
#952=DIRECTION('',(-1.,0.,0.));
#953=DIRECTION('',(0.,0.,-1.));
#954=DIRECTION('',(1.,0.,0.));
#955=DIRECTION('center_axis',(0.,0.,1.));
#956=DIRECTION('ref_axis',(0.,-1.,0.));
#957=DIRECTION('',(0.,-1.,0.));
#958=DIRECTION('',(1.,0.,0.));
#959=DIRECTION('center_axis',(0.,1.,0.));
#960=DIRECTION('ref_axis',(0.,0.,1.));
#961=DIRECTION('',(0.,0.,1.));
#962=DIRECTION('',(1.,0.,0.));
#963=DIRECTION('center_axis',(1.,0.,0.));
#964=DIRECTION('ref_axis',(0.,0.,-1.));
#965=DIRECTION('',(0.,-1.,0.));
#966=DIRECTION('center_axis',(1.,0.,0.));
#967=DIRECTION('ref_axis',(0.,0.,-1.));
#968=DIRECTION('',(0.,1.,-1.42014304910026E-16));
#969=DIRECTION('',(0.,-1.42014304910026E-16,-1.));
#970=DIRECTION('',(0.,-1.,1.42014304910026E-16));
#971=DIRECTION('',(0.,0.,1.));
#972=DIRECTION('',(0.,-1.,0.));
#973=DIRECTION('',(0.,0.,-1.));
#974=DIRECTION('',(0.,1.,0.));
#975=DIRECTION('',(0.,0.,1.));
#976=DIRECTION('center_axis',(0.,1.,0.));
#977=DIRECTION('ref_axis',(0.,0.,1.));
#978=DIRECTION('center_axis',(0.,1.,0.));
#979=DIRECTION('ref_axis',(0.,0.,-1.));
#980=DIRECTION('',(0.,0.,-1.));
#981=DIRECTION('',(1.,0.,0.));
#982=DIRECTION('center_axis',(0.,1.,0.));
#983=DIRECTION('ref_axis',(0.,0.,-1.));
#984=DIRECTION('center_axis',(-1.,0.,0.));
#985=DIRECTION('ref_axis',(0.,0.,1.));
#986=DIRECTION('',(0.,-1.,1.42014304910026E-16));
#987=DIRECTION('',(0.,0.,-1.));
#988=DIRECTION('',(0.,-1.,0.));
#989=DIRECTION('',(0.,0.,1.));
#990=DIRECTION('',(0.,1.,0.));
#991=DIRECTION('',(0.,1.,-1.42014304910026E-16));
#992=DIRECTION('',(0.,1.42014304910026E-16,1.));
#993=DIRECTION('center_axis',(0.,0.,1.));
#994=DIRECTION('ref_axis',(0.,-1.,0.));
#995=DIRECTION('',(-1.,0.,0.));
#996=DIRECTION('center_axis',(0.,1.,0.));
#997=DIRECTION('ref_axis',(0.,0.,1.));
#998=DIRECTION('center_axis',(0.,1.,0.));
#999=DIRECTION('ref_axis',(0.,0.,-1.));
#1000=DIRECTION('',(1.,0.,0.));
#1001=DIRECTION('center_axis',(0.,0.,-1.));
#1002=DIRECTION('ref_axis',(0.,1.,0.));
#1003=DIRECTION('',(1.,0.,0.));
#1004=DIRECTION('center_axis',(0.,-1.,0.));
#1005=DIRECTION('ref_axis',(0.,0.,-1.));
#1006=DIRECTION('center_axis',(0.,-1.,1.42014304910026E-16));
#1007=DIRECTION('ref_axis',(0.,0.,-1.));
#1008=DIRECTION('center_axis',(0.,-1.,1.42014304910026E-16));
#1009=DIRECTION('ref_axis',(1.,0.,0.));
#1010=DIRECTION('',(0.,1.,-1.42014304910026E-16));
#1011=DIRECTION('center_axis',(0.,-1.,1.42014304910026E-16));
#1012=DIRECTION('ref_axis',(1.,0.,0.));
#1013=DIRECTION('center_axis',(0.,-1.,1.42014304910026E-16));
#1014=DIRECTION('ref_axis',(1.,0.,0.));
#1015=DIRECTION('center_axis',(0.,-1.,1.42014304910026E-16));
#1016=DIRECTION('ref_axis',(0.,-1.42014304910026E-16,-1.));
#1017=DIRECTION('center_axis',(0.,1.,-1.42014304910026E-16));
#1018=DIRECTION('ref_axis',(0.,0.,-1.));
#1019=DIRECTION('',(-9.06596916612317E-17,0.672284852197811,0.740292562103232));
#1020=DIRECTION('center_axis',(0.,-1.,1.42014304910026E-16));
#1021=DIRECTION('ref_axis',(0.,-1.42014304910026E-16,-1.));
#1022=DIRECTION('axis',(0.,0.,1.));
#1023=DIRECTION('refdir',(1.,0.,0.));
#1024=DIRECTION('center_axis',(0.,1.,0.));
#1025=DIRECTION('ref_axis',(0.,0.,1.));
#1026=DIRECTION('center_axis',(0.,1.,0.));
#1027=DIRECTION('ref_axis',(1.,0.,0.));
#1028=DIRECTION('',(0.,-1.,0.));
#1029=DIRECTION('center_axis',(0.,1.,0.));
#1030=DIRECTION('ref_axis',(1.,0.,0.));
#1031=DIRECTION('center_axis',(0.,1.,0.));
#1032=DIRECTION('ref_axis',(0.,0.,1.));
#1033=DIRECTION('center_axis',(0.,1.,0.));
#1034=DIRECTION('ref_axis',(1.,0.,0.));
#1035=DIRECTION('center_axis',(0.,1.,0.));
#1036=DIRECTION('ref_axis',(0.,0.,1.));
#1037=DIRECTION('',(0.,-1.,0.));
#1038=DIRECTION('center_axis',(0.,1.,0.));
#1039=DIRECTION('ref_axis',(1.,0.,0.));
#1040=DIRECTION('center_axis',(0.,-1.,0.));
#1041=DIRECTION('ref_axis',(0.,0.,-1.));
#1042=DIRECTION('center_axis',(0.,1.,0.));
#1043=DIRECTION('ref_axis',(1.,0.,0.));
#1044=DIRECTION('center_axis',(0.,1.,0.));
#1045=DIRECTION('ref_axis',(0.,0.,1.));
#1046=DIRECTION('center_axis',(0.,1.,0.));
#1047=DIRECTION('ref_axis',(1.,0.,0.));
#1048=DIRECTION('',(0.,-1.,0.));
#1049=DIRECTION('center_axis',(0.,1.,0.));
#1050=DIRECTION('ref_axis',(0.,0.,1.));
#1051=DIRECTION('',(0.,0.,1.));
#1052=DIRECTION('',(1.,0.,0.));
#1053=DIRECTION('',(0.,0.,1.));
#1054=DIRECTION('',(1.,0.,0.));
#1055=CARTESIAN_POINT('',(0.,0.,0.));
#1056=CARTESIAN_POINT('',(0.,0.,0.));
#1057=CARTESIAN_POINT('Origin',(0.,0.268745888423633,4.19342679954642));
#1058=CARTESIAN_POINT('',(-2.04101973793914E-16,0.268745888423633,5.86004589279043));
#1059=CARTESIAN_POINT('Origin',(0.,0.268745888423633,4.19342679954642));
#1060=CARTESIAN_POINT('',(-7.53850570941882E-17,0.268745888423633,4.80899250507616));
#1061=CARTESIAN_POINT('Origin',(0.,0.268745888423633,4.19342679954642));
#1062=CARTESIAN_POINT('Origin',(0.000906849111881804,0.642761636455129,
2.46942679954642));
#1063=CARTESIAN_POINT('',(0.0598691761522047,0.642761636455129,2.46611757531649));
#1064=CARTESIAN_POINT('',(-0.0580519639003902,0.642761636455129,2.46605554707917));
#1065=CARTESIAN_POINT('Origin',(0.000906849111881804,0.642761636455129,
2.46942679954642));
#1066=CARTESIAN_POINT('',(0.0598691761522047,0.445911242754342,2.46611757531649));
#1067=CARTESIAN_POINT('',(0.0598691761522048,0.642761636455129,2.46611757531649));
#1068=CARTESIAN_POINT('',(-0.0580519639003902,0.445911242754342,2.46605554707917));
#1069=CARTESIAN_POINT('Origin',(0.000906849111881804,0.445911242754342,
2.46942679954642));
#1070=CARTESIAN_POINT('',(-0.0580519639003902,0.642761636455129,2.46605554707917));
#1071=CARTESIAN_POINT('Origin',(0.000908606125907201,0.445911242754342,
2.43824462837633));
#1072=CARTESIAN_POINT('Origin',(0.,0.445911242754342,4.19342679954642));
#1073=CARTESIAN_POINT('Origin',(0.,0.642761636455129,2.46508034285351));
#1074=CARTESIAN_POINT('',(-2.37456121488217E-16,0.642761636455128,6.13240317749917));
#1075=CARTESIAN_POINT('Origin',(0.,0.642761636455128,4.19342679954642));
#1076=CARTESIAN_POINT('',(-0.0598691761522049,0.642761636455129,5.92073602377635));
#1077=CARTESIAN_POINT('Origin',(0.,0.642761636455129,4.19342679954642));
#1078=CARTESIAN_POINT('',(0.05805196390039,0.642761636455129,5.92079805201366));
#1079=CARTESIAN_POINT('Origin',(-0.000906849111882015,0.642761636455129,
5.91742679954642));
#1080=CARTESIAN_POINT('Origin',(0.,0.642761636455129,4.19342679954642));
#1081=CARTESIAN_POINT('Origin',(0.,0.971343334146995,4.19342679954642));
#1082=CARTESIAN_POINT('',(-1.86725309341825E-16,0.971343334146995,5.71815465962682));
#1083=CARTESIAN_POINT('Origin',(0.,0.971343334146995,4.19342679954642));
#1084=CARTESIAN_POINT('',(-1.82649028989821E-16,1.05627521215303,5.68486930457716));
#1085=CARTESIAN_POINT('Origin',(-1.71417224352483E-16,0.971343334146995,
5.59315465962682));
#1086=CARTESIAN_POINT('Origin',(0.,1.05627521215303,4.19342679954642));
#1087=CARTESIAN_POINT('Ctrl Pts',(0.,1.70575376243938,4.19342679954642));
#1088=CARTESIAN_POINT('Ctrl Pts',(0.,1.70575376243938,4.19342679954642));
#1089=CARTESIAN_POINT('Ctrl Pts',(0.,1.70575376243938,4.19342679954642));
#1090=CARTESIAN_POINT('Ctrl Pts',(0.,1.70575376243938,4.19342679954642));
#1091=CARTESIAN_POINT('Ctrl Pts',(0.,1.70575376243938,4.19342679954642));
#1092=CARTESIAN_POINT('Ctrl Pts',(0.,1.70575376243938,4.19342679954642));
#1093=CARTESIAN_POINT('Ctrl Pts',(0.,1.70575376243938,4.19342679954642));
#1094=CARTESIAN_POINT('Ctrl Pts',(0.,1.70575376243938,4.19342679954642));
#1095=CARTESIAN_POINT('Ctrl Pts',(0.,1.70575376243938,4.19342679954642));
#1096=CARTESIAN_POINT('Ctrl Pts',(0.,1.70785490116038,5.08147726519302));
#1097=CARTESIAN_POINT('Ctrl Pts',(-0.888050465646603,1.70785490116038,5.08147726519302));
#1098=CARTESIAN_POINT('Ctrl Pts',(-0.888050465646603,1.70785490116038,4.19342679954642));
#1099=CARTESIAN_POINT('Ctrl Pts',(-0.888050465646603,1.70785490116038,3.30537633389981));
#1100=CARTESIAN_POINT('Ctrl Pts',(0.,1.70785490116038,3.30537633389981));
#1101=CARTESIAN_POINT('Ctrl Pts',(0.888050465646603,1.70785490116038,3.30537633389981));
#1102=CARTESIAN_POINT('Ctrl Pts',(0.888050465646603,1.70785490116038,4.19342679954642));
#1103=CARTESIAN_POINT('Ctrl Pts',(0.888050465646603,1.70785490116038,5.08147726519302));
#1104=CARTESIAN_POINT('Ctrl Pts',(0.,1.70785490116038,5.08147726519302));
#1105=CARTESIAN_POINT('Ctrl Pts',(0.,1.05627521215303,5.68486930457716));
#1106=CARTESIAN_POINT('Ctrl Pts',(-1.49144250503074,1.05627521215303,5.68486930457716));
#1107=CARTESIAN_POINT('Ctrl Pts',(-1.49144250503075,1.05627521215303,4.19342679954642));
#1108=CARTESIAN_POINT('Ctrl Pts',(-1.49144250503074,1.05627521215303,2.70198429451567));
#1109=CARTESIAN_POINT('Ctrl Pts',(0.,1.05627521215303,2.70198429451567));
#1110=CARTESIAN_POINT('Ctrl Pts',(1.49144250503074,1.05627521215303,2.70198429451567));
#1111=CARTESIAN_POINT('Ctrl Pts',(1.49144250503075,1.05627521215303,4.19342679954642));
#1112=CARTESIAN_POINT('Ctrl Pts',(1.49144250503074,1.05627521215303,5.68486930457716));
#1113=CARTESIAN_POINT('Ctrl Pts',(0.,1.05627521215303,5.68486930457716));
#1114=CARTESIAN_POINT('',(0.,1.70575376243938,4.19342679954642));
#1115=CARTESIAN_POINT('Origin',(-5.87092248823112E-19,-0.320428060393728,
4.19822077156538));
#1116=CARTESIAN_POINT('Origin',(0.,0.949209247925606,4.19342679954642));
#1117=CARTESIAN_POINT('',(-1.86725309341825E-16,0.878982108896074,5.71815465962682));
#1118=CARTESIAN_POINT('Origin',(0.,0.878982108896074,4.19342679954642));
#1119=CARTESIAN_POINT('',(-1.86725309341825E-16,0.949209247925606,5.71815465962682));
#1120=CARTESIAN_POINT('Origin',(-0.000906849111882015,0.642761636455129,
5.91742679954642));
#1121=CARTESIAN_POINT('',(-0.0598691761522049,0.445911242754342,5.92073602377635));
#1122=CARTESIAN_POINT('',(-0.059869176152205,0.642761636455129,5.92073602377635));
#1123=CARTESIAN_POINT('',(0.05805196390039,0.445911242754342,5.92079805201366));
#1124=CARTESIAN_POINT('Origin',(-0.000906849111882015,0.445911242754342,
5.91742679954642));
#1125=CARTESIAN_POINT('',(0.05805196390039,0.642761636455129,5.92079805201366));
#1126=CARTESIAN_POINT('Origin',(-0.000908606125907416,0.445911242754342,
5.9486089707165));
#1127=CARTESIAN_POINT('',(-2.11661395600664E-16,0.445911242754342,5.92177325623933));
#1128=CARTESIAN_POINT('Origin',(0.,0.445911242754342,4.19342679954642));
#1129=CARTESIAN_POINT('Origin',(0.,0.445911242754342,4.19342679954642));
#1130=CARTESIAN_POINT('Origin',(0.,0.483782121453894,4.19342679954642));
#1131=CARTESIAN_POINT('',(-2.11661395600664E-16,0.32480260645266,5.92177325623933));
#1132=CARTESIAN_POINT('Origin',(0.,0.32480260645266,4.19342679954642));
#1133=CARTESIAN_POINT('',(-2.11661395600664E-16,0.483782121453894,5.92177325623933));
#1134=CARTESIAN_POINT('Origin',(0.,0.296774247438147,4.19342679954642));
#1135=CARTESIAN_POINT('',(-2.07881684697289E-16,0.296774247438147,5.89090957451488));
#1136=CARTESIAN_POINT('Origin',(0.,0.878982108896074,2.44944780920477));
#1137=CARTESIAN_POINT('',(-2.13575828830213E-16,0.878982108896074,5.93740578988806));
#1138=CARTESIAN_POINT('Origin',(0.,0.878982108896074,4.19342679954642));
#1139=CARTESIAN_POINT('Origin',(0.,0.782483964285117,4.19342679954642));
#1140=CARTESIAN_POINT('',(-2.37456121488217E-16,0.68598581967416,6.13240317749917));
#1141=CARTESIAN_POINT('Origin',(0.,0.68598581967416,4.19342679954642));
#1142=CARTESIAN_POINT('',(-2.25515975159215E-16,0.782483964285117,6.03490448369362));
#1143=CARTESIAN_POINT('Origin',(0.,0.664373728064644,4.19342679954642));
#1144=CARTESIAN_POINT('',(-2.37456121488217E-16,0.664373728064644,6.13240317749917));
#1145=CARTESIAN_POINT('Origin',(-0.125,-1.67541879427027,4.39612298514553));
#1146=CARTESIAN_POINT('',(-0.125,-1.74062614857943,4.18936311084214));
#1147=CARTESIAN_POINT('',(-0.125,-1.74062614857943,4.60288285944892));
#1148=CARTESIAN_POINT('',(-0.125,-1.74062614857943,4.25958344551122));
#1149=CARTESIAN_POINT('',(-0.125,-1.66664914824179,4.60288285944892));
#1150=CARTESIAN_POINT('',(-0.125,-1.74062614857943,4.60288285944892));
#1151=CARTESIAN_POINT('',(-0.125,-1.66664914824179,4.25958344551122));
#1152=CARTESIAN_POINT('',(-0.125,-1.66664914824179,4.60288285944892));
#1153=CARTESIAN_POINT('',(-0.125,-1.61021143996111,4.25958344551122));
#1154=CARTESIAN_POINT('',(-0.125,-1.61021143996111,4.25958344551122));
#1155=CARTESIAN_POINT('',(-0.125,-1.61021143996111,4.18936311084214));
#1156=CARTESIAN_POINT('',(-0.125,-1.61021143996111,4.57232401010219));
#1157=CARTESIAN_POINT('',(-0.125,-1.74062614857943,4.18936311084214));
#1158=CARTESIAN_POINT('Origin',(0.,-1.66664914824179,4.60288285944892));
#1159=CARTESIAN_POINT('',(0.125,-1.74062614857943,4.60288285944892));
#1160=CARTESIAN_POINT('',(0.,-1.74062614857943,4.60288285944892));
#1161=CARTESIAN_POINT('',(0.125,-1.66664914824179,4.60288285944892));
#1162=CARTESIAN_POINT('',(0.125,-1.74062614857943,4.60288285944892));
#1163=CARTESIAN_POINT('',(0.,-1.66664914824179,4.60288285944892));
#1164=CARTESIAN_POINT('Origin',(0.,-1.66664914824179,4.25958344551122));
#1165=CARTESIAN_POINT('',(0.125,-1.66664914824179,4.25958344551122));
#1166=CARTESIAN_POINT('',(0.125,-1.66664914824179,4.60288285944892));
#1167=CARTESIAN_POINT('',(0.,-1.66664914824179,4.25958344551122));
#1168=CARTESIAN_POINT('Origin',(0.,-1.61021143996111,4.25958344551122));
#1169=CARTESIAN_POINT('',(0.125,-1.61021143996111,4.25958344551122));
#1170=CARTESIAN_POINT('',(0.125,-1.61021143996111,4.25958344551122));
#1171=CARTESIAN_POINT('',(0.,-1.61021143996111,4.25958344551122));
#1172=CARTESIAN_POINT('Origin',(0.,-1.74062614857943,4.18936311084214));
#1173=CARTESIAN_POINT('',(0.125,-1.61021143996111,4.18936311084214));
#1174=CARTESIAN_POINT('',(0.,-1.61021143996111,4.18936311084214));
#1175=CARTESIAN_POINT('',(0.125,-1.74062614857943,4.18936311084214));
#1176=CARTESIAN_POINT('',(0.125,-1.74062614857943,4.18936311084214));
#1177=CARTESIAN_POINT('',(0.,-1.74062614857943,4.18936311084214));
#1178=CARTESIAN_POINT('Origin',(0.,-1.74062614857943,4.60288285944892));
#1179=CARTESIAN_POINT('',(0.125,-1.74062614857943,4.25958344551122));
#1180=CARTESIAN_POINT('Origin',(0.125,-1.67541879427027,4.39612298514553));
#1181=CARTESIAN_POINT('',(0.125,-1.61021143996111,4.57232401010219));
#1182=CARTESIAN_POINT('Origin',(-0.125,-1.41936798708844,4.94878302652251));
#1183=CARTESIAN_POINT('',(-0.125,-1.45061798708844,4.74852503505885));
#1184=CARTESIAN_POINT('',(-0.125,-1.38811798708844,4.74852503505885));
#1185=CARTESIAN_POINT('',(-0.125,-1.14896171071386,4.74852503505885));
#1186=CARTESIAN_POINT('',(-0.125,-1.45061798708844,5.14904101798616));
#1187=CARTESIAN_POINT('',(-0.125,-1.45061798708844,5.14904101798616));
#1188=CARTESIAN_POINT('',(-0.125,-1.38811798708844,5.14904101798616));
#1189=CARTESIAN_POINT('',(-0.125,-1.38811798708844,5.14904101798616));
#1190=CARTESIAN_POINT('',(-0.125,-1.38811798708844,4.74852503505885));
#1191=CARTESIAN_POINT('Origin',(0.,-1.45061798708844,5.14904101798616));
#1192=CARTESIAN_POINT('',(0.125,-1.45061798708844,4.74852503505885));
#1193=CARTESIAN_POINT('',(0.,-1.45061798708844,4.74852503505885));
#1194=CARTESIAN_POINT('',(0.125,-1.45061798708844,5.14904101798616));
#1195=CARTESIAN_POINT('',(0.125,-1.45061798708844,5.14904101798616));
#1196=CARTESIAN_POINT('',(0.,-1.45061798708844,5.14904101798616));
#1197=CARTESIAN_POINT('Origin',(0.,-1.38811798708844,5.14904101798616));
#1198=CARTESIAN_POINT('',(0.125,-1.38811798708844,5.14904101798616));
#1199=CARTESIAN_POINT('',(0.125,-1.38811798708844,5.14904101798616));
#1200=CARTESIAN_POINT('',(0.,-1.38811798708844,5.14904101798616));
#1201=CARTESIAN_POINT('Origin',(0.,-1.38811798708844,4.74852503505885));
#1202=CARTESIAN_POINT('',(0.125,-1.38811798708844,4.74852503505885));
#1203=CARTESIAN_POINT('',(0.125,-1.38811798708844,4.74852503505885));
#1204=CARTESIAN_POINT('',(0.,-1.38811798708844,4.74852503505885));
#1205=CARTESIAN_POINT('Origin',(0.125,-1.41936798708844,4.94878302652251));
#1206=CARTESIAN_POINT('',(0.125,-1.14896171071386,4.74852503505885));
#1207=CARTESIAN_POINT('Origin',(0.236220472440945,-1.24438343715019,4.18936311084214));
#1208=CARTESIAN_POINT('',(0.236220472440945,-0.879254111576367,3.78428093949078));
#1209=CARTESIAN_POINT('',(0.236220472440945,-0.878555434339278,3.78428093949078));
#1210=CARTESIAN_POINT('',(0.236220472440945,-0.370242342907922,3.78428093949078));
#1211=CARTESIAN_POINT('',(0.236220472440945,-0.879254111576367,4.60257265960206));
#1212=CARTESIAN_POINT('',(0.236220472440945,-0.879254111576367,4.19139495519428));
#1213=CARTESIAN_POINT('',(0.236220472440945,-0.878555434339278,4.60257265960206));
#1214=CARTESIAN_POINT('',(0.236220472440945,-0.370242342907922,4.60257265960206));
#1215=CARTESIAN_POINT('',(0.236220472440945,-0.878555434339278,4.74852503505885));
#1216=CARTESIAN_POINT('',(0.236220472440945,-0.878555434339278,4.74852503505885));
#1217=CARTESIAN_POINT('',(0.236220472440945,-1.61021143996111,4.74852503505885));
#1218=CARTESIAN_POINT('',(0.236220472440945,-1.61021143996111,4.74852503505885));
#1219=CARTESIAN_POINT('',(0.236220472440945,-1.61021143996111,3.63020118662544));
#1220=CARTESIAN_POINT('',(0.236220472440945,-1.61021143996111,3.63020118662544));
#1221=CARTESIAN_POINT('',(0.236220472440945,-0.878555434339278,3.63020118662544));
#1222=CARTESIAN_POINT('',(0.236220472440945,-0.878555434339278,3.63020118662544));
#1223=CARTESIAN_POINT('',(0.236220472440945,-0.878555434339278,4.74852503505885));
#1224=CARTESIAN_POINT('Origin',(0.,-0.878555434339278,3.63020118662544));
#1225=CARTESIAN_POINT('',(-0.236220472440945,-0.878555434339278,4.60257265960206));
#1226=CARTESIAN_POINT('',(-5.78573290935757E-17,-0.878555434339278,4.66586774442831));
#1227=CARTESIAN_POINT('Origin',(0.,-0.878555434339278,4.19342679954642));
#1228=CARTESIAN_POINT('',(-0.236220472440945,-0.878555434339278,4.74852503505885));
#1229=CARTESIAN_POINT('',(-0.236220472440945,-0.878555434339278,4.74852503505885));
#1230=CARTESIAN_POINT('',(0.,-0.878555434339278,4.74852503505885));
#1231=CARTESIAN_POINT('Origin',(0.,-0.878555434339278,4.19342679954642));
#1232=CARTESIAN_POINT('Origin',(-0.236220472440945,-1.24438343715019,4.18936311084214));
#1233=CARTESIAN_POINT('',(-0.236220472440945,-0.878555434339278,3.78428093949078));
#1234=CARTESIAN_POINT('',(-0.236220472440945,-0.879254111576367,3.78428093949078));
#1235=CARTESIAN_POINT('',(-0.236220472440945,-0.370242342907922,3.78428093949078));
#1236=CARTESIAN_POINT('',(-0.236220472440945,-0.878555434339278,3.63020118662544));
#1237=CARTESIAN_POINT('',(-0.236220472440945,-0.878555434339278,4.74852503505885));
#1238=CARTESIAN_POINT('',(-0.236220472440945,-1.61021143996111,3.63020118662544));
#1239=CARTESIAN_POINT('',(-0.236220472440945,-0.878555434339278,3.63020118662544));
#1240=CARTESIAN_POINT('',(-0.236220472440945,-1.61021143996111,4.74852503505885));
#1241=CARTESIAN_POINT('',(-0.236220472440945,-1.61021143996111,3.63020118662544));
#1242=CARTESIAN_POINT('',(-0.236220472440945,-1.61021143996111,4.74852503505885));
#1243=CARTESIAN_POINT('',(-0.236220472440945,-0.879254111576367,4.60257265960206));
#1244=CARTESIAN_POINT('',(-0.236220472440945,-0.370242342907922,4.60257265960206));
#1245=CARTESIAN_POINT('',(-0.236220472440945,-0.879254111576367,4.19139495519428));
#1246=CARTESIAN_POINT('Origin',(0.,-0.878555434339278,4.74852503505885));
#1247=CARTESIAN_POINT('',(0.,-1.61021143996111,4.74852503505885));
#1248=CARTESIAN_POINT('Origin',(0.,-0.878555434339278,3.63020118662544));
#1249=CARTESIAN_POINT('Origin',(0.,-0.878555434339278,4.19342679954642));
#1250=CARTESIAN_POINT('',(0.,-0.878555434339278,3.63020118662544));
#1251=CARTESIAN_POINT('Origin',(0.,-1.61021143996111,3.63020118662544));
#1252=CARTESIAN_POINT('',(0.,-1.61021143996111,3.63020118662544));
#1253=CARTESIAN_POINT('Origin',(0.,-1.61021143996111,4.74852503505885));
#1254=CARTESIAN_POINT('Origin',(0.,-0.370242342907922,4.19342679954642));
#1255=CARTESIAN_POINT('Origin',(0.,-0.879254111576367,4.19342679954642));
#1256=CARTESIAN_POINT('',(-5.78573290935757E-17,0.138769425760523,4.66586774442831));
#1257=CARTESIAN_POINT('',(-5.78573290935757E-17,-0.370242342907922,4.66586774442831));
#1258=CARTESIAN_POINT('Origin',(0.,0.138769425760523,4.19342679954642));
#1259=CARTESIAN_POINT('Origin',(0.,-0.879254111576367,4.19342679954642));
#1260=CARTESIAN_POINT('Origin',(0.,-0.879254111576367,4.19342679954642));
#1261=CARTESIAN_POINT('Origin',(0.,0.203757657092078,4.19342679954642));
#1262=CARTESIAN_POINT('',(-6.6621193093882E-17,0.203757657092078,4.73743012475223));
#1263=CARTESIAN_POINT('Origin',(0.,-0.879254111576367,4.19342679954642));
#1264=CARTESIAN_POINT('',(0.,0.,0.));
#1265=CARTESIAN_POINT('Origin',(0.,0.0129952304889439,4.19342679954642));
#1266=CARTESIAN_POINT('',(-2.17374806848655E-16,0.235995230488944,2.41842679954642));
#1267=CARTESIAN_POINT('Origin',(0.,0.235995230488944,4.19342679954642));
#1268=CARTESIAN_POINT('',(-2.17374806848655E-16,-0.210004769511056,2.41842679954642));
#1269=CARTESIAN_POINT('',(-2.17374806848655E-16,0.0129952304889439,2.41842679954642));
#1270=CARTESIAN_POINT('Origin',(0.,-0.210004769511056,4.19342679954642));
#1271=CARTESIAN_POINT('Origin',(0.,-0.210004769511056,4.67992679954642));
#1272=CARTESIAN_POINT('',(-5.95790667785187E-17,-0.210004769511056,3.70692679954642));
#1273=CARTESIAN_POINT('Origin',(0.,-0.210004769511056,4.19342679954642));
#1274=CARTESIAN_POINT('Origin',(0.,-0.324004769511056,4.19342679954642));
#1275=CARTESIAN_POINT('',(-5.95790667785187E-17,-0.438004769511056,3.70692679954642));
#1276=CARTESIAN_POINT('',(-5.95790667785187E-17,-0.324004769511056,3.70692679954642));
#1277=CARTESIAN_POINT('Origin',(0.,-0.438004769511056,4.19342679954642));
#1278=CARTESIAN_POINT('Origin',(0.,-0.438004769511056,6.12042679954642));
#1279=CARTESIAN_POINT('',(-2.35989438195695E-16,-0.438004769511056,2.26642679954642));
#1280=CARTESIAN_POINT('Origin',(0.,-0.438004769511056,4.19342679954642));
#1281=CARTESIAN_POINT('Origin',(0.,-0.101004769511056,4.19342679954642));
#1282=CARTESIAN_POINT('',(-2.35989438195695E-16,0.235995230488944,2.26642679954642));
#1283=CARTESIAN_POINT('Origin',(0.,0.235995230488944,4.19342679954642));
#1284=CARTESIAN_POINT('',(-2.35989438195695E-16,-0.101004769511056,2.26642679954642));
#1285=CARTESIAN_POINT('Origin',(0.,0.235995230488944,5.96842679954642));
#1286=CARTESIAN_POINT('',(0.,0.,0.));
#1287=CARTESIAN_POINT('',(0.,0.,0.));
#1288=UNCERTAINTY_MEASURE_WITH_UNIT(LENGTH_MEASURE(0.000393700787401575),
#1297,'DISTANCE_ACCURACY_VALUE',
'Maximum model space distance between geometric entities at asserted c
onnectivities');
#1289=UNCERTAINTY_MEASURE_WITH_UNIT(LENGTH_MEASURE(0.000393700787401575),
#1297,'DISTANCE_ACCURACY_VALUE',
'Maximum model space distance between geometric entities at asserted c
onnectivities');
#1290=UNCERTAINTY_MEASURE_WITH_UNIT(LENGTH_MEASURE(0.000393700787401575),
#1297,'DISTANCE_ACCURACY_VALUE',
'Maximum model space distance between geometric entities at asserted c
onnectivities');
#1291=UNCERTAINTY_MEASURE_WITH_UNIT(LENGTH_MEASURE(0.000393700787401575),
#1297,'DISTANCE_ACCURACY_VALUE',
'Maximum model space distance between geometric entities at asserted c
onnectivities');
#1292=(
GEOMETRIC_REPRESENTATION_CONTEXT(3)
GLOBAL_UNCERTAINTY_ASSIGNED_CONTEXT((#1288))
GLOBAL_UNIT_ASSIGNED_CONTEXT((#1297,#1301,#1302))
REPRESENTATION_CONTEXT('','3D')
);
#1293=(
GEOMETRIC_REPRESENTATION_CONTEXT(3)
GLOBAL_UNCERTAINTY_ASSIGNED_CONTEXT((#1289))
GLOBAL_UNIT_ASSIGNED_CONTEXT((#1297,#1301,#1302))
REPRESENTATION_CONTEXT('','3D')
);
#1294=(
GEOMETRIC_REPRESENTATION_CONTEXT(3)
GLOBAL_UNCERTAINTY_ASSIGNED_CONTEXT((#1290))
GLOBAL_UNIT_ASSIGNED_CONTEXT((#1297,#1301,#1302))
REPRESENTATION_CONTEXT('','3D')
);
#1295=(
GEOMETRIC_REPRESENTATION_CONTEXT(3)
GLOBAL_UNCERTAINTY_ASSIGNED_CONTEXT((#1291))
GLOBAL_UNIT_ASSIGNED_CONTEXT((#1297,#1301,#1302))
REPRESENTATION_CONTEXT('','3D')
);
#1296=DIMENSIONAL_EXPONENTS(1.,0.,0.,0.,0.,0.,0.);
#1297=(
CONVERSION_BASED_UNIT('inch',#1300)
LENGTH_UNIT()
NAMED_UNIT(#1296)
);
#1298=(
LENGTH_UNIT()
NAMED_UNIT(*)
SI_UNIT(.MILLI.,.METRE.)
);
#1299=(
LENGTH_UNIT()
NAMED_UNIT(*)
SI_UNIT($,.METRE.)
);
#1300=LENGTH_MEASURE_WITH_UNIT(LENGTH_MEASURE(25.4),#1298);
#1301=(
NAMED_UNIT(*)
PLANE_ANGLE_UNIT()
SI_UNIT($,.RADIAN.)
);
#1302=(
NAMED_UNIT(*)
SI_UNIT($,.STERADIAN.)
SOLID_ANGLE_UNIT()
);
#1303=SHAPE_DEFINITION_REPRESENTATION(#1306,#1311);
#1304=SHAPE_DEFINITION_REPRESENTATION(#1307,#1312);
#1305=SHAPE_DEFINITION_REPRESENTATION(#1308,#1313);
#1306=PRODUCT_DEFINITION_SHAPE('',$,#1315);
#1307=PRODUCT_DEFINITION_SHAPE('',$,#1316);
#1308=PRODUCT_DEFINITION_SHAPE('',$,#1317);
#1309=PRODUCT_DEFINITION_SHAPE($,$,#17);
#1310=PRODUCT_DEFINITION_SHAPE($,$,#18);
#1311=SHAPE_REPRESENTATION('',(#754,#831,#832),#1292);
#1312=SHAPE_REPRESENTATION('',(#755),#1293);
#1313=SHAPE_REPRESENTATION('',(#818),#1294);
#1314=PRODUCT_DEFINITION_CONTEXT('part definition',#1325,'design');
#1315=PRODUCT_DEFINITION('2026-04-12-15-32-24-395',
'Massive_Arcade_Button_with_LED_-_100mm_Red.20c696a4-82a4-4a2c-b0f3-7e
56e5f5d878',#1318,#1314);
#1316=PRODUCT_DEFINITION('2026-04-12-15-32-24-396','Big Ass Button',#1319,
#1314);
#1317=PRODUCT_DEFINITION('2026-04-12-15-32-24-397','Big Ass Bezel',#1320,
#1314);
#1318=PRODUCT_DEFINITION_FORMATION('',$,#1327);
#1319=PRODUCT_DEFINITION_FORMATION('',$,#1328);
#1320=PRODUCT_DEFINITION_FORMATION('',$,#1329);
#1321=PRODUCT_RELATED_PRODUCT_CATEGORY(
'Massive_Arcade_Button_with_LED_-_100mm_Red.20c696a4-82a4-4a2c-b0f3-7e
56e5f5d878',
'Massive_Arcade_Button_with_LED_-_100mm_Red.20c696a4-82a4-4a2c-b0f3-7e
56e5f5d878',(#1327));
#1322=PRODUCT_RELATED_PRODUCT_CATEGORY('Big Ass Button',
'Big Ass Button',(#1328));
#1323=PRODUCT_RELATED_PRODUCT_CATEGORY('Big Ass Bezel','Big Ass Bezel',
(#1329));
#1324=APPLICATION_PROTOCOL_DEFINITION('international standard',
'automotive_design',2009,#1325);
#1325=APPLICATION_CONTEXT(
'Core Data for Automotive Mechanical Design Process');
#1326=PRODUCT_CONTEXT('part definition',#1325,'mechanical');
#1327=PRODUCT('2026-04-12-15-32-24-395',
'Massive_Arcade_Button_with_LED_-_100mm_Red.20c696a4-82a4-4a2c-b0f3-7e
56e5f5d878',$,(#1326));
#1328=PRODUCT('2026-04-12-15-32-24-396','Big Ass Button',$,(#1326));
#1329=PRODUCT('2026-04-12-15-32-24-397','Big Ass Bezel',$,(#1326));
#1330=PRESENTATION_STYLE_ASSIGNMENT((#1332));
#1331=PRESENTATION_STYLE_ASSIGNMENT((#1333));
#1332=SURFACE_STYLE_USAGE(.BOTH.,#1334);
#1333=SURFACE_STYLE_USAGE(.BOTH.,#1335);
#1334=SURFACE_SIDE_STYLE('',(#1336));
#1335=SURFACE_SIDE_STYLE('',(#1337));
#1336=SURFACE_STYLE_FILL_AREA(#1338);
#1337=SURFACE_STYLE_FILL_AREA(#1339);
#1338=FILL_AREA_STYLE('Plastic - Glossy (Black)',(#1340));
#1339=FILL_AREA_STYLE('Plastic - Glossy (Blue)',(#1341));
#1340=FILL_AREA_STYLE_COLOUR('Plastic - Glossy (Black)',#1342);
#1341=FILL_AREA_STYLE_COLOUR('Plastic - Glossy (Blue)',#1343);
#1342=COLOUR_RGB('Plastic - Glossy (Black)',0.0980392156862745,0.0980392156862745,
0.0980392156862745);
#1343=COLOUR_RGB('Plastic - Glossy (Blue)',0.188235294117647,0.231372549019608,
0.588235294117647);
ENDSEC;
END-ISO-10303-21;
